<svg width="95" height="24" viewBox="0 0 95 24" fill="none" xmlns="http://www.w3.org/2000/svg">
<path d="M75.1339 19C74.622 19 74.167 18.8842 73.7688 18.6526C73.3706 18.4211 73.0957 18.1228 72.944 17.7579L70.0431 9.96842C69.9483 9.70175 70.0099 9.45614 70.228 9.23158C70.446 9.00702 70.7446 8.89474 71.1238 8.89474H76.5275L81.533 3.37895C81.6278 3.26667 81.7605 3.17544 81.9312 3.10526C82.1018 3.03509 82.282 3 82.4716 3C82.6612 3 82.8413 3.03509 83.0119 3.10526C83.1826 3.17544 83.3153 3.26667 83.4101 3.37895L88.4156 8.89474H93.8762C94.2554 8.89474 94.554 9.00702 94.772 9.23158C94.9901 9.45614 95.0517 9.70175 94.9569 9.96842L92.056 17.7579C91.9043 18.1228 91.6294 18.4211 91.2312 18.6526C90.833 18.8842 90.378 19 89.8661 19H75.1339ZM75.1055 17.3158H89.8945L92.3973 10.5789H72.6027L75.1055 17.3158ZM82.5 15.6316C83.1257 15.6316 83.6613 15.4667 84.1069 15.1368C84.5525 14.807 84.7752 14.4105 84.7752 13.9474C84.7752 13.4842 84.5525 13.0877 84.1069 12.7579C83.6613 12.4281 83.1257 12.2632 82.5 12.2632C81.8743 12.2632 81.3387 12.4281 80.8931 12.7579C80.4475 13.0877 80.2248 13.4842 80.2248 13.9474C80.2248 14.4105 80.4475 14.807 80.8931 15.1368C81.3387 15.4667 81.8743 15.6316 82.5 15.6316ZM79.2862 8.89474H85.6853L82.4716 5.35789L79.2862 8.89474Z" fill="#B9B320"/>
<path d="M1.76136 19V4.45455H6.84659C7.85985 4.45455 8.69555 4.62973 9.35369 4.98011C10.0118 5.32576 10.5019 5.79214 10.8239 6.37926C11.1458 6.96165 11.3068 7.60795 11.3068 8.31818C11.3068 8.94318 11.1955 9.45928 10.973 9.86648C10.7552 10.2737 10.4664 10.5956 10.1065 10.8324C9.75142 11.0691 9.36553 11.2443 8.94886 11.358V11.5C9.39394 11.5284 9.84138 11.6847 10.2912 11.9688C10.741 12.2528 11.1174 12.66 11.4205 13.1903C11.7235 13.7206 11.875 14.3693 11.875 15.1364C11.875 15.8655 11.7093 16.5213 11.3778 17.1037C11.0464 17.6861 10.5232 18.1477 9.80824 18.4886C9.09328 18.8295 8.16288 19 7.01705 19H1.76136ZM3.52273 17.4375H7.01705C8.16761 17.4375 8.98438 17.215 9.46733 16.7699C9.95502 16.3201 10.1989 15.7756 10.1989 15.1364C10.1989 14.6439 10.0734 14.1894 9.82244 13.7727C9.5715 13.3513 9.21402 13.0152 8.75 12.7642C8.28598 12.5085 7.73674 12.3807 7.10227 12.3807H3.52273V17.4375ZM3.52273 10.8466H6.78977C7.32008 10.8466 7.7983 10.7424 8.22443 10.5341C8.6553 10.3258 8.99621 10.0322 9.24716 9.65341C9.50284 9.27462 9.63068 8.82955 9.63068 8.31818C9.63068 7.67898 9.40814 7.13684 8.96307 6.69176C8.51799 6.24195 7.8125 6.01705 6.84659 6.01705H3.52273V10.8466ZM17.7521 19.2557C17.0608 19.2557 16.4335 19.1255 15.87 18.8651C15.3066 18.5999 14.8591 18.2188 14.5277 17.7216C14.1963 17.2197 14.0305 16.6136 14.0305 15.9034C14.0305 15.2784 14.1536 14.7718 14.3999 14.3835C14.6461 13.9905 14.9751 13.6828 15.3871 13.4602C15.799 13.2377 16.2536 13.072 16.7507 12.9631C17.2526 12.8494 17.7569 12.7595 18.2635 12.6932C18.9264 12.608 19.4638 12.544 19.8757 12.5014C20.2924 12.4541 20.5954 12.3759 20.7848 12.267C20.9789 12.1581 21.076 11.9687 21.076 11.6989V11.642C21.076 10.9413 20.8842 10.3968 20.5007 10.0085C20.1219 9.62027 19.5466 9.42614 18.7749 9.42614C17.9747 9.42614 17.3473 9.60133 16.8928 9.9517C16.4382 10.3021 16.1186 10.6761 15.9339 11.0739L14.343 10.5057C14.6271 9.8428 15.0059 9.3267 15.4794 8.95739C15.9576 8.58333 16.4785 8.32292 17.0419 8.17614C17.6101 8.02462 18.1688 7.94886 18.718 7.94886C19.0684 7.94886 19.4709 7.99148 19.9254 8.0767C20.3847 8.1572 20.8274 8.32528 21.2536 8.58097C21.6844 8.83665 22.0419 9.22254 22.326 9.73864C22.6101 10.2547 22.7521 10.946 22.7521 11.8125V19H21.076V17.5227H20.9908C20.8771 17.7595 20.6877 18.0128 20.4226 18.2827C20.1574 18.5526 19.8047 18.7822 19.3643 18.9716C18.924 19.161 18.3866 19.2557 17.7521 19.2557ZM18.0078 17.75C18.6707 17.75 19.2294 17.6198 19.6839 17.3594C20.1432 17.099 20.4889 16.7628 20.7209 16.3509C20.9576 15.9389 21.076 15.5057 21.076 15.0511V13.517C21.005 13.6023 20.8487 13.6804 20.6072 13.7514C20.3705 13.8177 20.0959 13.8769 19.7834 13.929C19.4756 13.9763 19.175 14.0189 18.8814 14.0568C18.5926 14.09 18.3582 14.1184 18.1783 14.142C17.7427 14.1989 17.3355 14.2912 16.9567 14.419C16.5826 14.5421 16.2796 14.7292 16.0476 14.9801C15.8203 15.2263 15.7067 15.5625 15.7067 15.9886C15.7067 16.571 15.9221 17.0114 16.353 17.3097C16.7886 17.6032 17.3402 17.75 18.0078 17.75ZM33.5387 10.5341L32.033 10.9602C31.9383 10.7093 31.7987 10.4654 31.614 10.2287C31.4341 9.98722 31.1879 9.78835 30.8754 9.6321C30.5629 9.47585 30.1628 9.39773 29.6751 9.39773C29.0075 9.39773 28.4511 9.55161 28.006 9.85938C27.5657 10.1624 27.3455 10.5483 27.3455 11.017C27.3455 11.4337 27.497 11.7628 27.8001 12.0043C28.1031 12.2457 28.5766 12.447 29.2205 12.608L30.8398 13.0057C31.8152 13.2424 32.542 13.6046 33.0202 14.0923C33.4985 14.5753 33.7376 15.1979 33.7376 15.9602C33.7376 16.5852 33.5576 17.1439 33.1978 17.6364C32.8427 18.1288 32.3455 18.517 31.7063 18.8011C31.0671 19.0852 30.3237 19.2273 29.4762 19.2273C28.3635 19.2273 27.4426 18.9858 26.7134 18.5028C25.9843 18.0199 25.5226 17.3144 25.3285 16.3864L26.9194 15.9886C27.0709 16.5758 27.3574 17.0161 27.7788 17.3097C28.2049 17.6032 28.7612 17.75 29.4478 17.75C30.229 17.75 30.8493 17.5843 31.3086 17.2528C31.7726 16.9167 32.0046 16.5142 32.0046 16.0455C32.0046 15.6667 31.872 15.3494 31.6069 15.0938C31.3417 14.8333 30.9345 14.6392 30.3853 14.5114L28.5671 14.0852C27.5681 13.8485 26.8342 13.4815 26.3654 12.9844C25.9014 12.4825 25.6694 11.8551 25.6694 11.1023C25.6694 10.4867 25.8422 9.94223 26.1879 9.46875C26.5382 8.99527 27.0141 8.62358 27.6154 8.35369C28.2215 8.08381 28.908 7.94886 29.6751 7.94886C30.7546 7.94886 31.6022 8.18561 32.2177 8.65909C32.8379 9.13258 33.2783 9.75758 33.5387 10.5341ZM37.8232 15.0227L37.7947 12.9489H38.1357L42.9084 8.09091H44.9822L39.897 13.233H39.755L37.8232 15.0227ZM36.2607 19V4.45455H37.9368V19H36.2607ZM43.1925 19L38.9311 13.6023L40.1243 12.4375L45.3232 19H43.1925ZM51.2642 19.2273C50.2131 19.2273 49.3063 18.9953 48.544 18.5312C47.7865 18.0625 47.2017 17.4091 46.7898 16.571C46.3826 15.7282 46.179 14.7481 46.179 13.6307C46.179 12.5133 46.3826 11.5284 46.7898 10.6761C47.2017 9.81913 47.7746 9.15152 48.5085 8.6733C49.2472 8.19034 50.1089 7.94886 51.0938 7.94886C51.6619 7.94886 52.223 8.04356 52.777 8.23295C53.331 8.42235 53.8352 8.73011 54.2898 9.15625C54.7443 9.57765 55.1065 10.1364 55.3764 10.8324C55.6463 11.5284 55.7812 12.3854 55.7812 13.4034V14.1136H47.3722V12.6648H54.0767C54.0767 12.0492 53.9536 11.5 53.7074 11.017C53.4659 10.5341 53.1203 10.1529 52.6705 9.87358C52.2254 9.59422 51.6998 9.45455 51.0938 9.45455C50.4261 9.45455 49.8485 9.62026 49.3608 9.9517C48.8778 10.2784 48.5062 10.7045 48.2457 11.2301C47.9853 11.7557 47.8551 12.3191 47.8551 12.9205V13.8864C47.8551 14.7102 47.9972 15.4086 48.2812 15.9815C48.5701 16.5497 48.9702 16.983 49.4815 17.2812C49.9929 17.5748 50.5871 17.7216 51.2642 17.7216C51.7045 17.7216 52.1023 17.66 52.4574 17.5369C52.8172 17.4091 53.1274 17.2197 53.3878 16.9688C53.6482 16.7131 53.8494 16.3958 53.9915 16.017L55.6108 16.4716C55.4403 17.0208 55.1539 17.5038 54.7514 17.9205C54.349 18.3324 53.8518 18.6544 53.2599 18.8864C52.6681 19.1136 52.0028 19.2273 51.2642 19.2273ZM63.0753 8.09091V9.51136H57.4219V8.09091H63.0753ZM59.0696 5.47727H60.7457V15.875C60.7457 16.3485 60.8144 16.7036 60.9517 16.9403C61.0938 17.1723 61.2737 17.3286 61.4915 17.4091C61.714 17.4848 61.9484 17.5227 62.1946 17.5227C62.3793 17.5227 62.5308 17.5133 62.6491 17.4943C62.7675 17.4706 62.8622 17.4517 62.9332 17.4375L63.2741 18.9432C63.1605 18.9858 63.0019 19.0284 62.7983 19.071C62.5947 19.1184 62.3366 19.142 62.0241 19.142C61.5507 19.142 61.0866 19.0402 60.6321 18.8366C60.1823 18.633 59.8082 18.3229 59.5099 17.9062C59.2164 17.4896 59.0696 16.964 59.0696 16.3295V5.47727Z" fill="#B9B320"/>
</svg>
