<svg width="83" height="30" viewBox="0 0 83 30" fill="none" xmlns="http://www.w3.org/2000/svg">
<path d="M70.5 29V25.7778H80.2222V3.22222H70.5V0H80.2222C80.9861 0 81.64 0.315509 82.184 0.946528C82.728 1.57755 83 2.33611 83 3.22222V25.7778C83 26.6639 82.728 27.4225 82.184 28.0535C81.64 28.6845 80.9861 29 80.2222 29H70.5ZM67.7222 22.5556L65.8125 20.2194L69.3542 16.1111H58V12.8889H69.3542L65.8125 8.78056L67.7222 6.44444L74.6667 14.5L67.7222 22.5556Z" fill="#B9B320"/>
<path d="M1.76136 25V10.4545H3.52273V23.4375H10.2841V25H1.76136ZM17.2159 25.2273C16.2311 25.2273 15.367 24.9929 14.6236 24.5241C13.8849 24.0554 13.3073 23.3996 12.8906 22.5568C12.4787 21.714 12.2727 20.7292 12.2727 19.6023C12.2727 18.4659 12.4787 17.474 12.8906 16.6264C13.3073 15.7789 13.8849 15.1207 14.6236 14.652C15.367 14.1832 16.2311 13.9489 17.2159 13.9489C18.2008 13.9489 19.0625 14.1832 19.8011 14.652C20.5445 15.1207 21.1222 15.7789 21.5341 16.6264C21.9508 17.474 22.1591 18.4659 22.1591 19.6023C22.1591 20.7292 21.9508 21.714 21.5341 22.5568C21.1222 23.3996 20.5445 24.0554 19.8011 24.5241C19.0625 24.9929 18.2008 25.2273 17.2159 25.2273ZM17.2159 23.7216C17.964 23.7216 18.5795 23.5298 19.0625 23.1463C19.5455 22.7628 19.9029 22.2585 20.1349 21.6335C20.367 21.0085 20.483 20.3314 20.483 19.6023C20.483 18.8731 20.367 18.1937 20.1349 17.5639C19.9029 16.9342 19.5455 16.4252 19.0625 16.0369C18.5795 15.6487 17.964 15.4545 17.2159 15.4545C16.4678 15.4545 15.8523 15.6487 15.3693 16.0369C14.8864 16.4252 14.5289 16.9342 14.2969 17.5639C14.0649 18.1937 13.9489 18.8731 13.9489 19.6023C13.9489 20.3314 14.0649 21.0085 14.2969 21.6335C14.5289 22.2585 14.8864 22.7628 15.3693 23.1463C15.8523 23.5298 16.4678 23.7216 17.2159 23.7216ZM29.1211 29.3182C28.3114 29.3182 27.6154 29.214 27.033 29.0057C26.4506 28.8021 25.9653 28.5322 25.5771 28.196C25.1935 27.8646 24.8881 27.5095 24.6609 27.1307L25.9961 26.1932C26.1476 26.392 26.3394 26.6193 26.5714 26.875C26.8034 27.1354 27.1206 27.3603 27.5231 27.5497C27.9303 27.7438 28.4629 27.8409 29.1211 27.8409C30.0018 27.8409 30.7286 27.6278 31.3015 27.2017C31.8744 26.7756 32.1609 26.108 32.1609 25.1989V22.983H32.0188C31.8957 23.1818 31.7205 23.428 31.4933 23.7216C31.2707 24.0104 30.9487 24.2685 30.5273 24.4957C30.1107 24.7183 29.5472 24.8295 28.837 24.8295C27.9563 24.8295 27.1656 24.6212 26.4648 24.2045C25.7688 23.7879 25.2172 23.1818 24.81 22.3864C24.4076 21.5909 24.2063 20.625 24.2063 19.4886C24.2063 18.3712 24.4028 17.3982 24.7958 16.5696C25.1888 15.7363 25.7357 15.0923 26.4364 14.6378C27.1372 14.1785 27.9469 13.9489 28.8654 13.9489C29.5756 13.9489 30.1391 14.0672 30.5558 14.304C30.9772 14.536 31.2991 14.8011 31.5217 15.0994C31.7489 15.393 31.9241 15.6345 32.0472 15.8239H32.2177V14.0909H33.837V25.3125C33.837 26.25 33.6239 27.0123 33.1978 27.5994C32.7764 28.1913 32.2082 28.6245 31.4933 28.8991C30.783 29.1785 29.9923 29.3182 29.1211 29.3182ZM29.0643 23.3239C29.7366 23.3239 30.3048 23.17 30.7688 22.8622C31.2328 22.5545 31.5856 22.1117 31.8271 21.5341C32.0685 20.9564 32.1893 20.2652 32.1893 19.4602C32.1893 18.6742 32.0709 17.9806 31.8342 17.3793C31.5974 16.7779 31.247 16.3068 30.783 15.9659C30.319 15.625 29.7461 15.4545 29.0643 15.4545C28.354 15.4545 27.7622 15.6345 27.2887 15.9943C26.82 16.3542 26.4672 16.8371 26.2305 17.4432C25.9985 18.0492 25.8825 18.7216 25.8825 19.4602C25.8825 20.2178 26.0008 20.8878 26.2376 21.4702C26.479 22.0478 26.8342 22.5024 27.3029 22.8338C27.7764 23.1605 28.3635 23.3239 29.0643 23.3239ZM36.9052 25V14.0909H38.5813V25H36.9052ZM37.7575 12.2727C37.4308 12.2727 37.149 12.1615 36.9123 11.9389C36.6803 11.7164 36.5643 11.4489 36.5643 11.1364C36.5643 10.8239 36.6803 10.5563 36.9123 10.3338C37.149 10.1113 37.4308 10 37.7575 10C38.0842 10 38.3635 10.1113 38.5955 10.3338C38.8323 10.5563 38.9506 10.8239 38.9506 11.1364C38.9506 11.4489 38.8323 11.7164 38.5955 11.9389C38.3635 12.1615 38.0842 12.2727 37.7575 12.2727ZM43.3274 18.4375V25H41.6513V14.0909H43.2706V15.7955H43.4126C43.6683 15.2415 44.0566 14.7964 44.5774 14.4602C45.0982 14.1193 45.7706 13.9489 46.5945 13.9489C47.3331 13.9489 47.9794 14.1004 48.5334 14.4034C49.0874 14.7017 49.5182 15.1562 49.826 15.767C50.1338 16.3731 50.2876 17.1402 50.2876 18.0682V25H48.6115V18.1818C48.6115 17.3248 48.389 16.6572 47.9439 16.179C47.4988 15.696 46.888 15.4545 46.1115 15.4545C45.5765 15.4545 45.0982 15.5705 44.6768 15.8026C44.2602 16.0346 43.9311 16.3731 43.6896 16.8182C43.4482 17.2633 43.3274 17.803 43.3274 18.4375Z" fill="#B9B320"/>
</svg>
